<?xml version="1.0" standalone="no"?><!DOCTYPE svg PUBLIC "-//W3C//DTD SVG 1.1//EN" "http://www.w3.org/Graphics/SVG/1.1/DTD/svg11.dtd"><svg t="1731068707182" class="icon" viewBox="0 0 1024 1024" version="1.1" xmlns="http://www.w3.org/2000/svg" p-id="10072" xmlns:xlink="http://www.w3.org/1999/xlink" width="200" height="200"><path d="M848.8 234.4l-265-153c-38.5-22.3-105.1-22.3-143.6 0l-265 153c-39.6 22.8-71.8 78.6-71.8 124.3v306c0 45.7 32.2 101.5 71.8 124.3l265 153c19.3 11.1 44.7 17.3 71.8 17.3 27 0 52.5-6.1 71.8-17.3l265-153c39.6-22.8 71.8-78.6 71.8-124.3v-306c0-45.7-32.2-101.5-71.8-124.3zM491.1 864.7c0 9.2-2 16.8-5.6 21.3-2.7 3.3-6.1 4.9-10.9 4.9-5.3 0-11.7-2.1-18.5-6l-244.2-141c-28.6-16.5-52.8-58.4-52.8-91.4V395.3c0-7.9 1.6-26.2 16.5-26.2 5.3 0 11.7 2.1 18.5 6l244.2 141c28.6 16.5 52.8 58.4 52.8 91.4v257.2z m20.8-392c-20 0-39.2-4.5-52.8-12.3l-244.2-141c-10.5-6.1-16.6-13.4-16.6-20.2 0-6.8 6-14.1 16.6-20.2l244.2-141c13.5-7.8 32.8-12.3 52.8-12.3s39.2 4.5 52.8 12.3l244.2 141c10.5 6.1 16.5 13.4 16.5 20.2 0 6.8-6 14.1-16.5 20.2l-244.2 141c-13.6 7.8-32.8 12.3-52.8 12.3z m349.7 179.7c0 33-24.2 74.9-52.8 91.4L591.7 869.6l-18.5 6c-14.9 0-16.5-18.3-16.5-26.2V592.3c0-33 24.2-74.9 52.8-91.4l217.1-125.8c6.8-3.9 13.2-6 18.5-6 14.9 0 16.5 18.3 16.5 26.2v257.1z" fill="#707070" p-id="10073"></path><path d="M239.9 470.7c-18.9 0-34.3 20.6-34.3 45.9 0 25.3 15.4 45.9 34.3 45.9s34.3-20.6 34.3-45.9c0-25.3-15.4-45.9-34.3-45.9zM239.9 626.7c-18.9 0-34.3 20.6-34.3 45.9 0 25.3 15.4 45.9 34.3 45.9s34.3-20.6 34.3-45.9c0-25.3-15.4-45.9-34.3-45.9zM371.8 693.1c-18.9 0-34.3 20.6-34.3 45.9 0 25.3 15.4 45.9 34.3 45.9s34.3-20.6 34.3-45.9c0-25.3-15.4-45.9-34.3-45.9zM667.5 553.9c-18.9 0-34.3 20.6-34.3 45.9 0 25.3 15.4 45.9 34.3 45.9s34.3-20.6 34.3-45.9c0-25.3-15.3-45.9-34.3-45.9zM777.7 603.1c-18.9 0-34.3 20.6-34.3 45.9s15.4 45.9 34.3 45.9S812 674.3 812 649c0-25.3-15.3-45.9-34.3-45.9zM510.5 262.7c-27.8 0-50.4 15.4-50.4 34.3s22.6 34.3 50.4 34.3c27.8 0 50.4-15.4 50.4-34.3s-22.6-34.3-50.4-34.3zM383.5 540.1c-18.9 0-34.3 20.6-34.3 45.9 0 25.3 15.4 45.9 34.3 45.9 9.6 0 18.8-5.4 25.3-14.9 5.8-8.5 9-19.5 9-30.9 0-25.4-15.4-46-34.3-46z" fill="#707070" p-id="10074"></path></svg>